<svg width="154" height="44" viewBox="0 0 154 44" fill="none" xmlns="http://www.w3.org/2000/svg">
<path d="M3.648 38V5.072H20.976C23.408 5.072 25.424 5.488 27.024 6.32C28.624 7.152 29.824 8.336 30.624 9.872C31.424 11.408 31.824 13.216 31.824 15.296C31.824 17.44 31.344 19.344 30.384 21.008C29.424 22.64 28.016 23.872 26.16 24.704L32.976 38H26.16L20.112 25.76H9.888V38H3.648ZM9.888 20.528H20.496C22.096 20.528 23.328 20.064 24.192 19.136C25.056 18.208 25.488 16.928 25.488 15.296C25.488 14.24 25.296 13.36 24.912 12.656C24.528 11.92 23.968 11.36 23.232 10.976C22.496 10.592 21.584 10.4 20.496 10.4H9.888V20.528ZM52.5503 38.576C49.1903 38.576 46.3103 37.984 43.9103 36.8C41.5423 35.616 39.7183 33.776 38.4383 31.28C37.1903 28.752 36.5663 25.504 36.5663 21.536C36.5663 15.744 37.9743 11.456 40.7903 8.672C43.6063 5.888 47.5263 4.496 52.5503 4.496C55.2703 4.496 57.7183 4.96 59.8943 5.888C62.1023 6.816 63.8463 8.224 65.1263 10.112C66.4383 11.968 67.0943 14.336 67.0943 17.216H60.7103C60.7103 15.616 60.3583 14.272 59.6543 13.184C58.9823 12.064 58.0382 11.216 56.8223 10.64C55.6063 10.064 54.2143 9.776 52.6463 9.776C50.4703 9.776 48.6623 10.208 47.2223 11.072C45.7823 11.904 44.7103 13.152 44.0063 14.816C43.3343 16.48 42.9983 18.544 42.9983 21.008V22.064C42.9983 24.56 43.3343 26.64 44.0063 28.304C44.7103 29.968 45.7663 31.216 47.1743 32.048C48.6143 32.88 50.4383 33.296 52.6463 33.296C54.3103 33.296 55.7663 33.024 57.0143 32.48C58.2623 31.904 59.2223 31.072 59.8943 29.984C60.5983 28.864 60.9503 27.504 60.9503 25.904H67.0943C67.0943 28.784 66.4543 31.168 65.1743 33.056C63.8943 34.912 62.1503 36.304 59.9423 37.232C57.7663 38.128 55.3023 38.576 52.5503 38.576Z" fill="black"/>
<line x1="6.5" y1="3.99268" x2="6.5" y2="39.9927" stroke="white" stroke-width="8"/>
<path d="M84.4365 28H83.2676V19.0312H80.123V18.0059H87.5674V19.0312H84.4365V28ZM93.0383 18.0059C93.8586 18.0059 94.5354 18.1084 95.0686 18.3135C95.6064 18.514 96.0074 18.8216 96.2717 19.2363C96.536 19.651 96.6682 20.1797 96.6682 20.8223C96.6682 21.3509 96.5725 21.793 96.3811 22.1484C96.1897 22.4993 95.939 22.7842 95.6291 23.0029C95.3192 23.2217 94.9888 23.3903 94.6379 23.5088L97.3791 28H96.0256L93.5784 23.8301H91.5002V28H90.3381V18.0059H93.0383ZM92.97 19.0107H91.5002V22.8457H93.0862C93.9019 22.8457 94.5012 22.6794 94.884 22.3467C95.2714 22.014 95.4651 21.5241 95.4651 20.877C95.4651 20.1979 95.26 19.7171 94.8498 19.4346C94.4442 19.152 93.8176 19.0107 92.97 19.0107ZM106.507 28L105.277 24.8281H101.271L100.047 28H98.8716L102.782 17.9648H103.828L107.71 28H106.507ZM104.928 23.7959L103.759 20.6445C103.732 20.5625 103.686 20.4281 103.623 20.2412C103.563 20.0544 103.502 19.8607 103.438 19.6602C103.374 19.4596 103.322 19.2979 103.281 19.1748C103.235 19.3617 103.185 19.5485 103.13 19.7354C103.08 19.9176 103.03 20.0885 102.98 20.248C102.93 20.403 102.887 20.5352 102.85 20.6445L101.661 23.7959H104.928ZM110.358 28V18.0059H111.52V28H110.358ZM123.342 28H122.002L116.554 19.6055H116.499C116.513 19.8288 116.529 20.084 116.547 20.3711C116.565 20.6536 116.579 20.9567 116.588 21.2803C116.602 21.5993 116.608 21.9251 116.608 22.2578V28H115.528V18.0059H116.861L122.289 26.373H122.337C122.328 26.2135 122.316 25.988 122.303 25.6963C122.289 25.4001 122.275 25.0833 122.262 24.7461C122.253 24.4043 122.248 24.0876 122.248 23.7959V18.0059H123.342V28ZM127.329 28V18.0059H128.491V28H127.329ZM140.313 28H138.973L133.525 19.6055H133.47C133.484 19.8288 133.5 20.084 133.518 20.3711C133.536 20.6536 133.55 20.9567 133.559 21.2803C133.573 21.5993 133.58 21.9251 133.58 22.2578V28H132.499V18.0059H133.832L139.26 26.373H139.308C139.299 26.2135 139.288 25.988 139.274 25.6963C139.26 25.4001 139.247 25.0833 139.233 24.7461C139.224 24.4043 139.219 24.0876 139.219 23.7959V18.0059H140.313V28ZM148.573 22.7637H152.066V27.6104C151.542 27.7881 151.002 27.9202 150.446 28.0068C149.895 28.0934 149.277 28.1367 148.593 28.1367C147.554 28.1367 146.677 27.9294 145.962 27.5146C145.251 27.0999 144.711 26.5098 144.341 25.7441C143.972 24.974 143.788 24.0602 143.788 23.0029C143.788 21.9684 143.991 21.0661 144.396 20.2959C144.806 19.5257 145.396 18.9287 146.167 18.5049C146.941 18.0765 147.871 17.8623 148.956 17.8623C149.512 17.8623 150.038 17.9147 150.535 18.0195C151.036 18.1198 151.501 18.2633 151.929 18.4502L151.485 19.4619C151.116 19.3024 150.708 19.1657 150.261 19.0518C149.819 18.9378 149.361 18.8809 148.887 18.8809C148.072 18.8809 147.372 19.0495 146.789 19.3867C146.21 19.724 145.766 20.2002 145.456 20.8154C145.15 21.4307 144.998 22.1598 144.998 23.0029C144.998 23.8369 145.132 24.5638 145.401 25.1836C145.67 25.7988 146.089 26.2773 146.659 26.6191C147.229 26.9609 147.962 27.1318 148.86 27.1318C149.311 27.1318 149.699 27.1068 150.022 27.0566C150.346 27.002 150.64 26.9382 150.904 26.8652V23.8027H148.573V22.7637Z" fill="black"/>
</svg>
